<svg xmlns="http://www.w3.org/2000/svg" width="12" height="18" fill="none"><path fill="#868695" d="M5.997 0A4.942 4.942 0 0 0 3.31.786a4.716 4.716 0 0 0-1.782 2.1 4.545 4.545 0 0 0-.277 2.706A4.637 4.637 0 0 0 2.573 7.99 4.88 4.88 0 0 0 5.05 9.271c.937.18 1.91.087 2.792-.268a4.8 4.8 0 0 0 2.168-1.727 4.577 4.577 0 0 0 .444-4.391 4.666 4.666 0 0 0-1.046-1.516A4.837 4.837 0 0 0 7.843.356 4.958 4.958 0 0 0 5.997 0Zm0 6.561A2.05 2.05 0 0 1 4.57 5.99a1.923 1.923 0 0 1-.59-1.381c0-.519.212-1.016.59-1.382a2.05 2.05 0 0 1 1.426-.572c.266-.006.531.04.779.136.247.096.472.24.66.423.189.182.337.4.436.64.1.24.148.496.141.755.001.256-.05.51-.151.748-.101.238-.25.454-.437.635-.187.182-.41.326-.655.424a2.065 2.065 0 0 1-.773.146Zm1.941 6.562a9.041 9.041 0 0 0 2.882-1.181c.181-.128.329-.296.43-.49a1.327 1.327 0 0 0-.066-1.34 1.38 1.38 0 0 0-.574-.495 1.432 1.432 0 0 0-1.468.16 6.204 6.204 0 0 1-3.093.838 7.59 7.59 0 0 1-3.288-.919 1.48 1.48 0 0 0-.79-.204c-.363 0-.711.14-.968.389a1.306 1.306 0 0 0-.401.938c-.014.226.04.452.155.65.115.197.285.359.492.465.857.541 1.812.92 2.814 1.116l-2.664 2.646c-.129.124-.231.27-.301.433a1.291 1.291 0 0 0 .301 1.455c.132.13.288.235.461.306.173.071.36.109.548.11.379-.005.741-.154 1.008-.416l2.58-2.58 2.665 2.58c.262.23.605.354.96.345.353-.01.69-.15.939-.392.25-.243.393-.57.4-.912a1.31 1.31 0 0 0-.358-.929l-2.664-2.573Z"/></svg>