<svg xmlns="http://www.w3.org/2000/svg" width="20" height="14" fill="none"><path fill="#868695" d="M0 6.755c0-3.062 0-4.593.893-5.59a3.5 3.5 0 0 1 .272-.272C2.162 0 3.693 0 6.755 0h6.49c3.062 0 4.593 0 5.59.893.096.085.186.176.272.272.893.997.893 2.528.893 5.59v.49c0 3.062 0 4.593-.893 5.59a3.49 3.49 0 0 1-.272.272c-.997.893-2.528.893-5.59.893h-6.49c-3.062 0-4.593 0-5.59-.893a3.495 3.495 0 0 1-.272-.272C0 11.838 0 10.307 0 7.245v-.49Z"/><path fill="#fff" d="m13.135 7.031-5.25-3.03v6.061l5.25-3.03Z"/></svg>