<svg xmlns="http://www.w3.org/2000/svg" fill="none" viewBox="0 0 28 28"><path fill="#C8C8D1" fill-rule="evenodd" d="m1.956 20.53-.75-9.045c-.041-.493-.062-.74.004-.955.059-.19.165-.362.309-.5.162-.155.392-.247.851-.432l4.412-1.772c.281-.113.422-.17.54-.256.105-.076.196-.17.27-.276.083-.12.136-.262.242-.547l1.195-3.2c.164-.437.245-.656.387-.817.126-.142.284-.252.46-.32.202-.076.435-.076.902-.076h6.446c.467 0 .7 0 .9.076.178.068.336.178.462.32.141.161.223.38.386.818l1.195 3.2c.106.283.16.426.243.546.074.106.165.2.27.276.118.087.259.143.54.256l4.412 1.772c.459.185.688.277.851.432.144.138.25.31.308.5.067.215.046.462.005.955l-.75 9.046c-.15 1.812-.226 2.718-.627 3.403a3.5 3.5 0 0 1-1.51 1.39c-.717.343-1.626.343-3.444.343H7.537c-1.818 0-2.727 0-3.444-.343a3.5 3.5 0 0 1-1.51-1.39c-.401-.686-.477-1.591-.627-3.404Zm12.045-.695a3.88 3.88 0 0 0 3.873-3.89 3.88 3.88 0 0 0-3.873-3.888 3.88 3.88 0 0 0-3.872 3.889A3.88 3.88 0 0 0 14 19.835Z" clip-rule="evenodd"/></svg>