<svg xmlns="http://www.w3.org/2000/svg" width="13" height="12" fill="none"><path fill="#4584FF" fill-rule="evenodd" d="M7.24.48a1.363 1.363 0 0 0-2.08 0 1.363 1.363 0 0 1-1.362.444c-.818-.2-1.62.382-1.682 1.222a1.363 1.363 0 0 1-.843 1.16 1.363 1.363 0 0 0-.642 1.976c.271.44.271.994 0 1.434a1.363 1.363 0 0 0 .642 1.977c.478.196.804.645.843 1.16.062.839.864 1.421 1.682 1.221a1.363 1.363 0 0 1 1.363.443 1.363 1.363 0 0 0 2.079 0 1.363 1.363 0 0 1 1.363-.443c.818.2 1.62-.382 1.682-1.222.038-.514.364-.963.842-1.159a1.363 1.363 0 0 0 .643-1.977 1.362 1.362 0 0 1 0-1.434 1.363 1.363 0 0 0-.643-1.977 1.363 1.363 0 0 1-.842-1.16A1.362 1.362 0 0 0 8.603.925 1.363 1.363 0 0 1 7.24.48Zm1.987 3.242a.749.749 0 0 1 0 1.061L5.732 8.278a.749.749 0 0 1-1.06 0L3.173 6.78a.75.75 0 0 1 1.06-1.06l.969.966 2.964-2.965a.749.749 0 0 1 1.06.001Z" clip-rule="evenodd"/></svg>