<svg xmlns="http://www.w3.org/2000/svg" width="20" height="20" fill="none"><path fill="#D3D4DD" d="m19.463 8.858-.002-.002L11.302.54A1.829 1.829 0 0 0 10 0a1.83 1.83 0 0 0-1.302.54L.543 8.851l-.008.008a1.843 1.843 0 0 0 .003 2.6 1.83 1.83 0 0 0 1.279.54h.325v5.845c0 1.188.967 2.155 2.155 2.155H7.49a.586.586 0 0 0 .586-.586v-4.707c0-.542.442-.983.984-.983h1.883c.542 0 .983.44.983.983v4.707c0 .324.262.586.586.586h3.192a2.157 2.157 0 0 0 2.155-2.155V12h.302a1.83 1.83 0 0 0 1.302-.54 1.844 1.844 0 0 0 0-2.602Z"/></svg>