<svg xmlns="http://www.w3.org/2000/svg" width="24" height="20" fill="none"><path fill="#C8C8D1" fill-rule="evenodd" d="M16 9.5a3.5 3.5 0 1 0 0-7 3.5 3.5 0 0 0 0 7Zm0 2.5a5.973 5.973 0 0 0 3.453-1.093l2.24 2.149a1.25 1.25 0 0 0 1.731-1.804l-2.27-2.178A6 6 0 1 0 16 12ZM1.5 3h7.082A7.978 7.978 0 0 0 8 6H1.5a1.5 1.5 0 1 1 0-3Zm0 7h7.57a8.04 8.04 0 0 0 2.914 2.92c-.152.052-.315.08-.484.08h-10a1.5 1.5 0 0 1 0-3ZM0 18.5A1.5 1.5 0 0 1 1.5 17h17a1.5 1.5 0 0 1 0 3h-17A1.5 1.5 0 0 1 0 18.5Z" clip-rule="evenodd"/></svg>